HIERARCHY
ROOT Hips
{
	OFFSET	0.00	0.00	0.00
	CHANNELS 6 Xposition Yposition Zposition Zrotation Xrotation Yrotation
	JOINT LeftUpLeg
	{
		OFFSET	 0.126116	-0.065224	 0.014019
		CHANNELS 3 Zrotation Xrotation Yrotation
		JOINT LeftLeg
		{
			OFFSET	 0.000000	 0.569914	 0.000000
			CHANNELS 3 Zrotation Xrotation Yrotation
			JOINT LeftFoot
			{
				OFFSET	 0.000000	 0.544423	 0.000000
				CHANNELS 3 Zrotation Xrotation Yrotation
				JOINT LeftToeBase
				{
					OFFSET	 0.000000	 0.207117	 0.000000
					CHANNELS 3 Zrotation Xrotation Yrotation
					End Site
					{
						OFFSET	 0.000000	 0.207117	 0.000000
					}
				}
			}
		}
	}
	JOINT RightUpLeg
	{
		OFFSET	-0.124023	-0.065224	 0.008373
		CHANNELS 3 Zrotation Xrotation Yrotation
		JOINT RightLeg
		{
			OFFSET	 0.000000	 0.570047	 0.000000
			CHANNELS 3 Zrotation Xrotation Yrotation
			JOINT RightFoot
			{
				OFFSET	 0.000000	 0.544354	 0.000000
				CHANNELS 3 Zrotation Xrotation Yrotation
				JOINT RightToeBase
				{
					OFFSET	 0.000000	 0.207540	 0.000000
					CHANNELS 3 Zrotation Xrotation Yrotation
					End Site
					{
						OFFSET	 0.000000	 0.207540	 0.000000
					}
				}
			}
		}
	}
	JOINT Spine
	{
		OFFSET	 0.000184	 0.117403	 0.007763
		CHANNELS 3 Zrotation Xrotation Yrotation
		JOINT Spine1
		{
			OFFSET	 0.000000	 0.137269	 0.000000
			CHANNELS 3 Zrotation Xrotation Yrotation
			JOINT Spine2
			{
				OFFSET	 0.000000	 0.156879	 0.000000
				CHANNELS 3 Zrotation Xrotation Yrotation
				JOINT LeftShoulder
				{
					OFFSET	 0.080501	 0.160143	 0.002496
					CHANNELS 3 Zrotation Xrotation Yrotation
					JOINT LeftArm
					{
						OFFSET	 0.000000	 0.164363	 0.000000
						CHANNELS 3 Zrotation Xrotation Yrotation
						JOINT LeftForeArm
						{
							OFFSET	 0.000000	 0.364576	 0.000000
							CHANNELS 3 Zrotation Xrotation Yrotation
							JOINT LeftHand
							{
								OFFSET	 0.000000	 0.360812	 0.000000
								CHANNELS 3 Zrotation Xrotation Yrotation
								JOINT LeftHandIndex1
								{
									OFFSET	 0.000000	 0.086006	 0.000000
									CHANNELS 3 Zrotation Xrotation Yrotation
									JOINT LeftHandIndex2
									{
										OFFSET	 0.000000	 0.047237	 0.000000
										CHANNELS 3 Zrotation Xrotation Yrotation
										JOINT LeftHandIndex3
										{
											OFFSET	-0.004284	 0.038165	 0.000551
											CHANNELS 3 Zrotation Xrotation Yrotation
											End Site
											{
												OFFSET	-0.004284	 0.038165	 0.000551
											}
										}
									}
								}
							}
						}
					}
				}
				JOINT Neck
				{
					OFFSET	 0.000000	 0.176489	 0.000000
					CHANNELS 3 Zrotation Xrotation Yrotation
					JOINT Head
					{
						OFFSET	 0.000000	 0.077941	 0.001747
						CHANNELS 3 Zrotation Xrotation Yrotation
						End Site
						{
							OFFSET	 0.000000	 0.077941	 0.001747
						}
					}
				}
				JOINT RightShoulder
				{
					OFFSET	-0.080363	 0.159706	-0.000306
					CHANNELS 3 Zrotation Xrotation Yrotation
					JOINT RightArm
					{
						OFFSET	 0.000000	 0.164196	 0.000000
						CHANNELS 3 Zrotation Xrotation Yrotation
						JOINT RightForeArm
						{
							OFFSET	 0.000000	 0.365611	 0.000000
							CHANNELS 3 Zrotation Xrotation Yrotation
							JOINT RightHand
							{
								OFFSET	 0.000000	 0.360648	 0.000000
								CHANNELS 3 Zrotation Xrotation Yrotation
								JOINT RightHandIndex1
								{
									OFFSET	 0.000000	 0.069977	 0.000000
									CHANNELS 3 Zrotation Xrotation Yrotation
									JOINT RightHandIndex2
									{
										OFFSET	 0.000000	 0.052305	 0.000000
										CHANNELS 3 Zrotation Xrotation Yrotation
										JOINT RightHandIndex3
										{
											OFFSET	 0.009002	 0.042196	 0.000782
											CHANNELS 3 Zrotation Xrotation Yrotation
											End Site
											{
												OFFSET	 0.009002	 0.042196	 0.000782
											}
										}
									}
								}
							}
						}
					}
				}
			}
		}
	}
}
MOTION
Frames:    6
Frame Time: 0.03333334
-0.016264	 1.255638	 0.115301	 4.377053	 0.193300	 174.004600	-170.350600	 15.888080	 5.869766	 2.367094	-24.130570	 1.087251	 45.604790	 46.284960	-62.294020	 4.912823	 28.009660	-6.307256	-173.482700	 5.344882	-0.135610	-1.781999	-19.840450	 1.855312	-57.488470	 58.567180	 64.313940	-0.376556	 31.171730	 1.633102	 1.226433	 4.219798	-3.029710	 8.509295	 6.086313	-1.706826	-6.884852	-3.481744	 8.075629	-112.566500	 3.132215	 88.314700	 42.820640	 45.197940	-8.862002	 4.783570	-0.250238	 0.704032	-11.069920	 10.789340	-53.387590	-8.018153	 12.508650	-5.832992	-7.228735	 12.664250	 2.804044	 4.963066	-4.014628	-0.346955	 1.521663	-13.920030	 1.351329	-1.966092	 8.752937	-26.302960	 109.129700	 0.671539	-88.593610	-12.224980	 61.101900	 11.831910	-5.102255	-0.487503	 41.258050	-4.267432	 8.348482	-64.240760	 2.015677	 8.309012	 8.960689	 15.202880	 20.246910	-6.343626	-8.239867	-2.131385	 0.447455
-0.016349	 1.255386	 0.115345	 4.365990	 0.092415	 174.034600	-170.178800	 16.103390	 4.940057	 2.381920	-24.264340	 1.115187	 45.682410	 46.174920	-62.213210	 4.912825	 28.009670	-6.307249	-173.648500	 5.559759	 0.849802	-1.800218	-20.027090	 1.794699	-57.711480	 58.626400	 64.573480	-0.381081	 31.177270	 1.637589	 1.203263	 4.157576	-2.567156	 8.461712	 5.910364	-1.699508	-6.811821	-3.367189	 8.046766	-112.540700	 3.100008	 88.310260	 42.645480	 45.236530	-8.810650	 4.872513	-0.248028	 1.213782	-11.040930	 10.805220	-53.090340	-7.988513	 12.532950	-5.840329	-7.228870	 12.658620	 2.803275	 4.963066	-4.014628	-0.346955	 1.495108	-13.879680	 1.364903	-1.954344	 8.868185	-26.388090	 109.097500	 0.696089	-88.606060	-12.051030	 60.958970	 11.778570	-5.156718	-0.557379	 40.668040	-3.998723	 8.455067	-64.310110	 1.990166	 8.240202	 8.960075	 15.202980	 20.262180	-6.347803	-8.239867	-2.131385	 0.447455
-0.016451	 1.255082	 0.115344	 4.331985	-0.029382	 174.107200	-170.041100	 16.354870	 4.048035	 2.398315	-24.411880	 1.160506	 45.790160	 46.054410	-62.154460	 4.912828	 28.009680	-6.307235	-173.843500	 5.821405	 1.876886	-1.823723	-20.267340	 1.691566	-58.017770	 58.664850	 64.931050	-0.389116	 31.187080	 1.645557	 1.145944	 4.103714	-1.761378	 8.383205	 5.614681	-1.706111	-6.684058	-3.173294	 7.995227	-112.495000	 3.042824	 88.302460	 42.586790	 45.285130	-8.932603	 5.043164	-0.244784	 2.118435	-11.177220	 10.820500	-52.541000	-7.935879	 12.576080	-5.853387	-7.229110	 12.648610	 2.801908	 4.963066	-4.014628	-0.346955	 1.447955	-13.808060	 1.389041	-1.932951	 9.072737	-26.539360	 109.040400	 0.739719	-88.628170	-11.911670	 60.809780	 11.831790	-5.277359	-0.683020	 39.620720	-3.545186	 8.509799	-64.463940	 1.944888	 8.118046	 8.958912	 15.203170	 20.289280	-6.355219	-8.239867	-2.131385	 0.447455
-0.016494	 1.254905	 0.115279	 4.236577	-0.191134	 174.241800	-169.970900	 16.611800	 3.207561	 2.403005	-24.453860	 1.216430	 45.881110	 45.892050	-62.042640	 4.912832	 28.009700	-6.307217	-174.101600	 6.125494	 2.928236	-1.847325	-20.507740	 1.551865	-58.386320	 58.652990	 65.360860	-0.400499	 31.200990	 1.656847	 1.020799	 4.029413	-0.645067	 8.256829	 5.167873	-1.740911	-6.496121	-2.887368	 7.920853	-112.430400	 2.961802	 88.291440	 42.653760	 45.321380	-9.237087	 5.293134	-0.240637	 3.398620	-11.512680	 10.848340	-51.742020	-7.861302	 12.637140	-5.871956	-7.229448	 12.634430	 2.799973	 4.963066	-4.014628	-0.346955	 1.381140	-13.706660	 1.423320	-1.901487	 9.362265	-26.754190	 108.959600	 0.801547	-88.659400	-11.806790	 60.677870	 11.987080	-5.460854	-0.860631	 38.138050	-2.909761	 8.502006	-64.713190	 1.880776	 7.945025	 8.957098	 15.203440	 20.327660	-6.365725	-8.239867	-2.131385	 0.447455
-0.016603	 1.254661	 0.115058	 4.117975	-0.370541	 174.415500	-169.944200	 16.905120	 2.407686	 2.411700	-24.531900	 1.289327	 46.022510	 45.729420	-61.975750	 4.912837	 28.009740	-6.307191	-174.396700	 6.468491	 4.023201	-1.876827	-20.807530	 1.375341	-58.838900	 58.631230	 65.891650	-0.415360	 31.219140	 1.671585	 0.865736	 3.961994	 0.797515	 8.126904	 4.540380	-1.796055	-6.268946	-2.495367	 7.820985	-112.346000	 2.856071	 88.277210	 42.921120	 45.342980	-9.788228	 5.621756	-0.235499	 5.065378	-12.103540	 10.908930	-50.688550	-7.763934	 12.716790	-5.896312	-7.229892	 12.615930	 2.797448	 4.963066	-4.014628	-0.346955	 1.293905	-13.574400	 1.468210	-1.858377	 9.739708	-27.035600	 108.854200	 0.882288	-88.700010	-11.722840	 60.526550	 12.235400	-5.711177	-1.090655	 36.206790	-2.065574	 8.425815	-65.071560	 1.797147	 7.719256	 8.954439	 15.203790	 20.377740	-6.379437	-8.239867	-2.131385	 0.447455
-0.016797	 1.254318	 0.114599	 3.968981	-0.566042	 174.632500	-169.971300	 17.239370	 1.642592	 2.426400	-24.663660	 1.380470	 46.228470	 45.573530	-61.967060	 4.912844	 28.009780	-6.307161	-174.742700	 6.854069	 5.177498	-1.914426	-21.187380	 1.161815	-59.395360	 58.606410	 66.549130	-0.433979	 31.241840	 1.690050	 0.674507	 3.903126	 2.579189	 8.005628	 3.674700	-1.878814	-6.007181	-1.970151	 7.691562	-112.240400	 2.723653	 88.259630	 43.442540	 45.331130	-10.640280	 6.031382	-0.229110	 7.143341	-13.017390	 11.022240	-49.356440	-7.641926	 12.816450	-5.927017	-7.230448	 12.592770	 2.794286	 4.963066	-4.014628	-0.346955	 1.184594	-13.408890	 1.524675	-1.801126	 10.211650	-27.389880	 108.722300	 0.983471	-88.750660	-11.653170	 60.347470	 12.575830	-6.033825	-1.374589	 33.796760	-0.981436	 8.263881	-65.560230	 1.692474	 7.436554	 8.950643	 15.204260	 20.440440	-6.396612	-8.239867	-2.131385	 0.447455
